<?xml version="1.0"?>
<svg xmlns="http://www.w3.org/2000/svg" height="512px" viewBox="0 -31 511.9995 511" width="512px"><path d="m509.324219 215.003906-118-204.5c-3.574219-6.191406-10.175781-10.003906-17.324219-10.003906h-236c-7.148438 0-13.75 3.8125-17.324219 10.003906l-118 204.5c-3.566406 6.1875-3.566406 13.804688 0 19.992188l118 204.5c3.574219 6.191406 10.175781 10.003906 17.324219 10.003906h236c7.148438 0 13.75-3.8125 17.324219-10.003906l118-204.5c3.566406-6.1875 3.566406-13.804688 0-19.992188zm-146.875 194.496094h-212.898438l-106.460937-184.5 106.460937-184.5h212.898438l106.460937 184.5zm-12.308594-250.359375-65.855469 65.859375 65.855469 65.855469c7.8125 7.8125 7.8125 20.476562 0 28.285156-3.902344 3.90625-9.023437 5.859375-14.140625 5.859375-5.121094 0-10.238281-1.953125-14.140625-5.855469l-65.859375-65.859375-65.859375 65.859375c-3.902344 3.902344-9.023437 5.855469-14.140625 5.855469-5.121094 0-10.238281-1.953125-14.140625-5.855469-7.8125-7.8125-7.8125-20.476562 0-28.285156l65.855469-65.859375-65.855469-65.855469c-7.8125-7.8125-7.8125-20.476562 0-28.285156 7.808594-7.8125 20.472656-7.8125 28.28125 0l65.859375 65.855469 65.859375-65.859375c7.808594-7.808594 20.472656-7.808594 28.28125 0 7.8125 7.8125 7.8125 20.476562 0 28.285156zm0 0" fill="#9b9d9e"/></svg>
